<svg xmlns="http://www.w3.org/2000/svg" viewBox="0 0 512 512" width="512" height="512">
  <rect width="512" height="512" fill="#0d0f14"/>
  <path fill="#c9a84c" d="M256,32 C264.8,32 272,39.2 272,48 L272,64 L448,64 C474.5,64 496,85.5 496,112 C496,138.5 474.5,160 448,160 L432,160 L432,176 L485.7,294 C493.5,311 487.6,331.4 471.4,340 C454.4,349.1 432.2,342.3 424.3,325 L370.6,207 L370.6,176 L272,176 L272,448 L352,448 C360.8,448 368,455.2 368,464 C368,472.8 360.8,480 352,480 L160,480 C151.2,480 144,472.8 144,464 C144,455.2 151.2,448 160,448 L240,448 L240,176 L141.4,176 L141.4,207 L87.7,325 C79.8,342.3 57.6,349.1 40.6,340 C24.4,331.4 18.5,311 26.3,294 L80,176 L80,160 L64,160 C37.5,160 16,138.5 16,112 C16,85.5 37.5,64 64,64 L240,64 L240,48 C240,39.2 247.2,32 256,32 Z"/>
</svg>
